<mxfile host="app.diagrams.net" agent="Mozilla/5.0 (Macintosh; Intel Mac OS X 10_15_7) AppleWebKit/537.36 (KHTML, like Gecko) Chrome/133.0.0.0 Safari/537.36" version="26.0.16">
  <diagram id="C5RBs43oDa-KdzZeNtuy" name="Page-1">
    <mxGraphModel dx="840" dy="600" grid="1" gridSize="10" guides="1" tooltips="1" connect="1" arrows="1" fold="1" page="1" pageScale="1" pageWidth="827" pageHeight="1169" math="0" shadow="0">
      <root>
        <mxCell id="WIyWlLk6GJQsqaUBKTNV-0" />
        <mxCell id="WIyWlLk6GJQsqaUBKTNV-1" parent="WIyWlLk6GJQsqaUBKTNV-0" />
        <mxCell id="3LglYpqWa5ygs2vzz9fM-13" style="edgeStyle=orthogonalEdgeStyle;rounded=0;orthogonalLoop=1;jettySize=auto;html=1;entryX=0.5;entryY=0;entryDx=0;entryDy=0;" parent="WIyWlLk6GJQsqaUBKTNV-1" source="3LglYpqWa5ygs2vzz9fM-1" target="3LglYpqWa5ygs2vzz9fM-10" edge="1">
          <mxGeometry relative="1" as="geometry" />
        </mxCell>
        <mxCell id="3LglYpqWa5ygs2vzz9fM-1" value="Area and perimeter of a rectangle&amp;nbsp;" style="rounded=0;whiteSpace=wrap;html=1;" parent="WIyWlLk6GJQsqaUBKTNV-1" vertex="1">
          <mxGeometry x="340" y="30" width="120" height="60" as="geometry" />
        </mxCell>
        <mxCell id="3LglYpqWa5ygs2vzz9fM-35" style="edgeStyle=orthogonalEdgeStyle;rounded=0;orthogonalLoop=1;jettySize=auto;html=1;" parent="WIyWlLk6GJQsqaUBKTNV-1" source="3LglYpqWa5ygs2vzz9fM-9" target="3LglYpqWa5ygs2vzz9fM-17" edge="1">
          <mxGeometry relative="1" as="geometry" />
        </mxCell>
        <mxCell id="3LglYpqWa5ygs2vzz9fM-9" value="Input" style="rounded=0;whiteSpace=wrap;html=1;" parent="WIyWlLk6GJQsqaUBKTNV-1" vertex="1">
          <mxGeometry x="170" y="140" width="50" height="20" as="geometry" />
        </mxCell>
        <mxCell id="3LglYpqWa5ygs2vzz9fM-22" value="" style="edgeStyle=orthogonalEdgeStyle;rounded=0;orthogonalLoop=1;jettySize=auto;html=1;" parent="WIyWlLk6GJQsqaUBKTNV-1" source="3LglYpqWa5ygs2vzz9fM-10" target="3LglYpqWa5ygs2vzz9fM-1" edge="1">
          <mxGeometry relative="1" as="geometry" />
        </mxCell>
        <mxCell id="3LglYpqWa5ygs2vzz9fM-36" style="edgeStyle=orthogonalEdgeStyle;rounded=0;orthogonalLoop=1;jettySize=auto;html=1;exitX=0.5;exitY=1;exitDx=0;exitDy=0;" parent="WIyWlLk6GJQsqaUBKTNV-1" source="3LglYpqWa5ygs2vzz9fM-10" edge="1">
          <mxGeometry relative="1" as="geometry">
            <mxPoint x="340" y="200" as="targetPoint" />
          </mxGeometry>
        </mxCell>
        <mxCell id="3LglYpqWa5ygs2vzz9fM-37" style="edgeStyle=orthogonalEdgeStyle;rounded=0;orthogonalLoop=1;jettySize=auto;html=1;exitX=0.5;exitY=1;exitDx=0;exitDy=0;" parent="WIyWlLk6GJQsqaUBKTNV-1" source="3LglYpqWa5ygs2vzz9fM-10" edge="1">
          <mxGeometry relative="1" as="geometry">
            <mxPoint x="450" y="200" as="targetPoint" />
          </mxGeometry>
        </mxCell>
        <mxCell id="3LglYpqWa5ygs2vzz9fM-10" value="prossecc" style="rounded=0;whiteSpace=wrap;html=1;" parent="WIyWlLk6GJQsqaUBKTNV-1" vertex="1">
          <mxGeometry x="375" y="140" width="55" height="20" as="geometry" />
        </mxCell>
        <mxCell id="3LglYpqWa5ygs2vzz9fM-12" style="edgeStyle=orthogonalEdgeStyle;rounded=0;orthogonalLoop=1;jettySize=auto;html=1;exitX=0.5;exitY=1;exitDx=0;exitDy=0;entryX=0.5;entryY=0;entryDx=0;entryDy=0;" parent="WIyWlLk6GJQsqaUBKTNV-1" source="3LglYpqWa5ygs2vzz9fM-1" target="3LglYpqWa5ygs2vzz9fM-9" edge="1">
          <mxGeometry relative="1" as="geometry">
            <Array as="points">
              <mxPoint x="400" y="115" />
              <mxPoint x="195" y="115" />
            </Array>
          </mxGeometry>
        </mxCell>
        <mxCell id="3LglYpqWa5ygs2vzz9fM-15" value="Get length L" style="rounded=0;whiteSpace=wrap;html=1;" parent="WIyWlLk6GJQsqaUBKTNV-1" vertex="1">
          <mxGeometry x="10" y="230" width="80" height="30" as="geometry" />
        </mxCell>
        <mxCell id="3LglYpqWa5ygs2vzz9fM-17" value="Get width W" style="rounded=0;whiteSpace=wrap;html=1;" parent="WIyWlLk6GJQsqaUBKTNV-1" vertex="1">
          <mxGeometry x="155" y="235" width="80" height="30" as="geometry" />
        </mxCell>
        <mxCell id="3LglYpqWa5ygs2vzz9fM-24" style="edgeStyle=orthogonalEdgeStyle;rounded=0;orthogonalLoop=1;jettySize=auto;html=1;exitX=0.5;exitY=1;exitDx=0;exitDy=0;" parent="WIyWlLk6GJQsqaUBKTNV-1" source="3LglYpqWa5ygs2vzz9fM-10" target="3LglYpqWa5ygs2vzz9fM-10" edge="1">
          <mxGeometry relative="1" as="geometry" />
        </mxCell>
        <mxCell id="3LglYpqWa5ygs2vzz9fM-27" value="" style="edgeStyle=orthogonalEdgeStyle;rounded=0;orthogonalLoop=1;jettySize=auto;html=1;entryX=0.5;entryY=0;entryDx=0;entryDy=0;" parent="WIyWlLk6GJQsqaUBKTNV-1" target="3LglYpqWa5ygs2vzz9fM-25" edge="1">
          <mxGeometry relative="1" as="geometry">
            <mxPoint x="400" y="115" as="sourcePoint" />
            <mxPoint x="585" y="205" as="targetPoint" />
          </mxGeometry>
        </mxCell>
        <mxCell id="3LglYpqWa5ygs2vzz9fM-38" style="edgeStyle=orthogonalEdgeStyle;rounded=0;orthogonalLoop=1;jettySize=auto;html=1;exitX=0.5;exitY=1;exitDx=0;exitDy=0;entryX=0.25;entryY=0;entryDx=0;entryDy=0;" parent="WIyWlLk6GJQsqaUBKTNV-1" source="3LglYpqWa5ygs2vzz9fM-25" target="3LglYpqWa5ygs2vzz9fM-33" edge="1">
          <mxGeometry relative="1" as="geometry">
            <Array as="points">
              <mxPoint x="595" y="190" />
              <mxPoint x="608" y="190" />
            </Array>
          </mxGeometry>
        </mxCell>
        <mxCell id="3LglYpqWa5ygs2vzz9fM-40" style="edgeStyle=orthogonalEdgeStyle;rounded=0;orthogonalLoop=1;jettySize=auto;html=1;exitX=0.5;exitY=1;exitDx=0;exitDy=0;" parent="WIyWlLk6GJQsqaUBKTNV-1" source="3LglYpqWa5ygs2vzz9fM-25" edge="1">
          <mxGeometry relative="1" as="geometry">
            <mxPoint x="710" y="210" as="targetPoint" />
            <Array as="points">
              <mxPoint x="595" y="190" />
              <mxPoint x="711" y="190" />
            </Array>
          </mxGeometry>
        </mxCell>
        <mxCell id="3LglYpqWa5ygs2vzz9fM-25" value="output&amp;nbsp;" style="rounded=0;whiteSpace=wrap;html=1;" parent="WIyWlLk6GJQsqaUBKTNV-1" vertex="1">
          <mxGeometry x="570" y="150" width="50" height="20" as="geometry" />
        </mxCell>
        <mxCell id="3LglYpqWa5ygs2vzz9fM-29" value="Calculate the area&amp;nbsp;&lt;div&gt;A = length * width&lt;/div&gt;" style="rounded=0;whiteSpace=wrap;html=1;" parent="WIyWlLk6GJQsqaUBKTNV-1" vertex="1">
          <mxGeometry x="290" y="205" width="110" height="55" as="geometry" />
        </mxCell>
        <mxCell id="EmXARx8lf9IMqtuLd0gA-2" value="" style="edgeStyle=orthogonalEdgeStyle;rounded=0;orthogonalLoop=1;jettySize=auto;html=1;" edge="1" parent="WIyWlLk6GJQsqaUBKTNV-1" source="3LglYpqWa5ygs2vzz9fM-30" target="3LglYpqWa5ygs2vzz9fM-29">
          <mxGeometry relative="1" as="geometry" />
        </mxCell>
        <mxCell id="3LglYpqWa5ygs2vzz9fM-30" value="Calculate the&amp;nbsp;perimeter&amp;nbsp; P = 2 * (length + width)&amp;nbsp;" style="rounded=0;whiteSpace=wrap;html=1;" parent="WIyWlLk6GJQsqaUBKTNV-1" vertex="1">
          <mxGeometry x="414" y="205" width="136" height="55" as="geometry" />
        </mxCell>
        <mxCell id="3LglYpqWa5ygs2vzz9fM-32" value="Display perimeter P" style="rounded=0;whiteSpace=wrap;html=1;" parent="WIyWlLk6GJQsqaUBKTNV-1" vertex="1">
          <mxGeometry x="680" y="212.5" width="100" height="40" as="geometry" />
        </mxCell>
        <mxCell id="3LglYpqWa5ygs2vzz9fM-33" value="Display area A" style="rounded=0;whiteSpace=wrap;html=1;" parent="WIyWlLk6GJQsqaUBKTNV-1" vertex="1">
          <mxGeometry x="570" y="212.5" width="90" height="40" as="geometry" />
        </mxCell>
        <mxCell id="3LglYpqWa5ygs2vzz9fM-34" style="edgeStyle=orthogonalEdgeStyle;rounded=0;orthogonalLoop=1;jettySize=auto;html=1;exitX=0.5;exitY=1;exitDx=0;exitDy=0;entryX=0.425;entryY=0.1;entryDx=0;entryDy=0;entryPerimeter=0;" parent="WIyWlLk6GJQsqaUBKTNV-1" source="3LglYpqWa5ygs2vzz9fM-9" target="3LglYpqWa5ygs2vzz9fM-15" edge="1">
          <mxGeometry relative="1" as="geometry" />
        </mxCell>
      </root>
    </mxGraphModel>
  </diagram>
</mxfile>
